<svg width="482" height="155" viewBox="0 0 482 155" fill="none" xmlns="http://www.w3.org/2000/svg">
<rect width="482" height="155" fill="#F5F5F5"/>
<path d="M90.2273 63.5H70.3182C69.9545 60.9242 69.2121 58.6364 68.0909 56.6364C66.9697 54.6061 65.5303 52.8788 63.7727 51.4545C62.0152 50.0303 59.9848 48.9394 57.6818 48.1818C55.4091 47.4242 52.9394 47.0455 50.2727 47.0455C45.4545 47.0455 41.2576 48.2424 37.6818 50.6364C34.1061 53 31.3333 56.4545 29.3636 61C27.3939 65.5151 26.4091 71 26.4091 77.4545C26.4091 84.0909 27.3939 89.6667 29.3636 94.1818C31.3636 98.697 34.1515 102.106 37.7273 104.409C41.303 106.712 45.4394 107.864 50.1364 107.864C52.7727 107.864 55.2121 107.515 57.4545 106.818C59.7273 106.121 61.7424 105.106 63.5 103.773C65.2576 102.409 66.7121 100.758 67.8636 98.8182C69.0455 96.8788 69.8636 94.6667 70.3182 92.1818L90.2273 92.2727C89.7121 96.5455 88.4242 100.667 86.3636 104.636C84.3333 108.576 81.5909 112.106 78.1364 115.227C74.7121 118.318 70.6212 120.773 65.8636 122.591C61.1364 124.379 55.7879 125.273 49.8182 125.273C41.5152 125.273 34.0909 123.394 27.5455 119.636C21.0303 115.879 15.8788 110.439 12.0909 103.318C8.33333 96.197 6.45455 87.5758 6.45455 77.4545C6.45455 67.303 8.36364 58.6667 12.1818 51.5455C16 44.4242 21.1818 39 27.7273 35.2727C34.2727 31.5151 41.6364 29.6364 49.8182 29.6364C55.2121 29.6364 60.2121 30.3939 64.8182 31.9091C69.4545 33.4242 73.5606 35.6364 77.1364 38.5454C80.7121 41.4242 83.6212 44.9545 85.8636 49.1364C88.1364 53.3182 89.5909 58.1061 90.2273 63.5ZM104.341 30.9091H128.614L154.25 93.4545H155.341L180.977 30.9091H205.25V124H186.159V63.4091H185.386L161.295 123.545H148.295L124.205 63.1818H123.432V124H104.341V30.9091ZM237.511 124H216.42L248.557 30.9091H273.92L306.011 124H284.92L261.602 52.1818H260.875L237.511 124ZM236.193 87.4091H286.011V102.773H236.193V87.4091Z" fill="#638CF4"/>
<path d="M325.091 30.9091L352.727 109.273H353.818L381.455 30.9091H393.273L359.091 124H347.455L313.273 30.9091H325.091ZM406.136 124V115.818L436.864 82.1818C440.47 78.2424 443.439 74.8182 445.773 71.9091C448.106 68.9697 449.833 66.2121 450.955 63.6364C452.106 61.0303 452.682 58.303 452.682 55.4545C452.682 52.1818 451.894 49.3485 450.318 46.9545C448.773 44.5606 446.652 42.7121 443.955 41.4091C441.258 40.1061 438.227 39.4545 434.864 39.4545C431.288 39.4545 428.167 40.197 425.5 41.6818C422.864 43.1364 420.818 45.1818 419.364 47.8182C417.939 50.4545 417.227 53.5455 417.227 57.0909H406.5C406.5 51.6364 407.758 46.8485 410.273 42.7273C412.788 38.6061 416.212 35.3939 420.545 33.0909C424.909 30.7879 429.803 29.6364 435.227 29.6364C440.682 29.6364 445.515 30.7879 449.727 33.0909C453.939 35.3939 457.242 38.5 459.636 42.4091C462.03 46.3182 463.227 50.6667 463.227 55.4545C463.227 58.8788 462.606 62.2273 461.364 65.5C460.152 68.7424 458.03 72.3636 455 76.3636C452 80.3333 447.833 85.1818 442.5 90.9091L421.591 113.273V114H464.864V124H406.136Z" fill="#838383"/>
</svg>
